HIERARCHY
ROOT hip
{
  OFFSET 0 0 0
  CHANNELS 6 Xposition Yposition Zposition Zrotation Yrotation Xrotation
  JOINT abdomen
  {
    OFFSET 0 20.6881 -0.73152
    CHANNELS 3 Zrotation Xrotation Yrotation
    JOINT chest
    {
      OFFSET 0 11.7043 -0.48768
      CHANNELS 3 Zrotation Xrotation Yrotation
      JOINT neck
      {
        OFFSET 0 22.1894 -2.19456
        CHANNELS 3 Zrotation Xrotation Yrotation
        JOINT head
        {
          OFFSET -0.24384 7.07133 1.2192
          CHANNELS 3 Zrotation Xrotation Yrotation
          JOINT leftEye
          {
            OFFSET 4.14528 8.04674 8.04672
            CHANNELS 3 Zrotation Xrotation Yrotation
            End Site
            {
              OFFSET 1 0 0
            }
          }
          JOINT rightEye
          {
            OFFSET -3.6576 8.04674 8.04672
            CHANNELS 3 Zrotation Xrotation Yrotation
            End Site
            {
              OFFSET 1 0 0
            }
          }
        }
      }
      JOINT rCollar
      {
        OFFSET -2.68224 19.2634 -4.8768
        CHANNELS 3 Zrotation Xrotation Yrotation
        JOINT rShldr
        {
          OFFSET -8.77824 -1.95073 1.46304
          CHANNELS 3 Zrotation Xrotation Yrotation
          JOINT rForeArm
          {
            OFFSET -28.1742 -1.7115 0.48768
            CHANNELS 3 Zrotation Xrotation Yrotation
            JOINT rHand
            {
              OFFSET -22.5879 0.773209 7.07136
              CHANNELS 3 Zrotation Xrotation Yrotation
              JOINT rThumb1
              {
                OFFSET -1.2192 -0.487915 3.41376
                CHANNELS 3 Zrotation Xrotation Yrotation
                JOINT rThumb2
                {
                  OFFSET -3.37035 -0.52449 3.41376
                  CHANNELS 3 Zrotation Xrotation Yrotation
                  End Site
                  {
                    OFFSET -1.78271 -1.18214 1.43049
                  }
                }
              }
              JOINT rIndex1
              {
                OFFSET -7.75947 0.938293 5.60832
                CHANNELS 3 Zrotation Xrotation Yrotation
                JOINT rIndex2
                {
                  OFFSET -2.54057 -0.884171 1.56538
                  CHANNELS 3 Zrotation Xrotation Yrotation
                  End Site
                  {
                    OFFSET -1.62519 -0.234802 1.16502
                  }
                }
              }
              JOINT rMid1
              {
                OFFSET -8.24714 1.18213 3.41376
                CHANNELS 3 Zrotation Xrotation Yrotation
                JOINT rMid2
                {
                  OFFSET -3.10165 -0.590103 1.0647
                  CHANNELS 3 Zrotation Xrotation Yrotation
                  End Site
                  {
                    OFFSET -2.48547 -0.328903 0.83742
                  }
                }
              }
              JOINT rRing1
              {
                OFFSET -8.82822 0.546677 1.51678
                CHANNELS 3 Zrotation Xrotation Yrotation
                JOINT rRing2
                {
                  OFFSET -2.60934 -0.819778 -0.0198488
                  CHANNELS 3 Zrotation Xrotation Yrotation
                  End Site
                  {
                    OFFSET -2.33842 -0.294052 0.168128
                  }
                }
              }
              JOINT rPinky1
              {
                OFFSET -8.27202 -0.0477905 -0.4584
                CHANNELS 3 Zrotation Xrotation Yrotation
                JOINT rPinky2
                {
                  OFFSET -1.82734 -0.647385 -0.700984
                  CHANNELS 3 Zrotation Xrotation Yrotation
                  End Site
                  {
                    OFFSET -1.69225 -0.51767 -0.607171
                  }
                }
              }
            }
          }
        }
      }
      JOINT lCollar
      {
        OFFSET 2.68224 19.2634 -4.8768
        CHANNELS 3 Zrotation Xrotation Yrotation
        JOINT lShldr
        {
          OFFSET 8.77824 -1.95073 1.46304
          CHANNELS 3 Zrotation Xrotation Yrotation
          JOINT lForeArm
          {
            OFFSET 28.1742 -1.7115 0.48768
            CHANNELS 3 Zrotation Xrotation Yrotation
            JOINT lHand
            {
              OFFSET 22.5879 0.773209 7.07136
              CHANNELS 3 Zrotation Xrotation Yrotation
              JOINT lThumb1
              {
                OFFSET 1.2192 -0.487915 3.41376
                CHANNELS 3 Zrotation Xrotation Yrotation
                JOINT lThumb2
                {
                  OFFSET 3.37035 -0.52449 3.41376
                  CHANNELS 3 Zrotation Xrotation Yrotation
                  End Site
                  {
                    OFFSET 1.78271 -1.18214 1.43049
                  }
                }
              }
              JOINT lIndex1
              {
                OFFSET 7.75947 0.938293 5.60832
                CHANNELS 3 Zrotation Xrotation Yrotation
                JOINT lIndex2
                {
                  OFFSET 2.54057 -0.884171 1.56538
                  CHANNELS 3 Zrotation Xrotation Yrotation
                  End Site
                  {
                    OFFSET 1.62519 -0.234802 1.16502
                  }
                }
              }
              JOINT lMid1
              {
                OFFSET 8.24714 1.18213 3.41376
                CHANNELS 3 Zrotation Xrotation Yrotation
                JOINT lMid2
                {
                  OFFSET 3.10165 -0.590103 1.0647
                  CHANNELS 3 Zrotation Xrotation Yrotation
                  End Site
                  {
                    OFFSET 2.48547 -0.328903 0.83742
                  }
                }
              }
              JOINT lRing1
              {
                OFFSET 8.82822 0.546677 1.51678
                CHANNELS 3 Zrotation Xrotation Yrotation
                JOINT lRing2
                {
                  OFFSET 2.60934 -0.819778 -0.0198488
                  CHANNELS 3 Zrotation Xrotation Yrotation
                  End Site
                  {
                    OFFSET 2.33842 -0.294052 0.168128
                  }
                }
              }
              JOINT lPinky1
              {
                OFFSET 8.27202 -0.0477905 -0.4584
                CHANNELS 3 Zrotation Xrotation Yrotation
                JOINT lPinky2
                {
                  OFFSET 1.82734 -0.647385 -0.700984
                  CHANNELS 3 Zrotation Xrotation Yrotation
                  End Site
                  {
                    OFFSET 1.69225 -0.51767 -0.607171
                  }
                }
              }
            }
          }
        }
      }
    }
  }
  JOINT rButtock
  {
    OFFSET -8.77824 4.35084 1.2192
    CHANNELS 3 Zrotation Xrotation Yrotation
    JOINT rThigh
    {
      OFFSET 0 -1.70687 -2.19456
      CHANNELS 3 Zrotation Xrotation Yrotation
      JOINT rShin
      {
        OFFSET 0 -36.8199 0.73152
        CHANNELS 3 Zrotation Xrotation Yrotation
        JOINT rFoot
        {
          OFFSET 0.73152 -45.1104 -5.12064
          CHANNELS 3 Zrotation Xrotation Yrotation
          End Site
          {
            OFFSET -1.1221 -3.69964 12.103
          }
        }
      }
    }
  }
  JOINT lButtock
  {
    OFFSET 8.77824 4.35084 1.2192
    CHANNELS 3 Zrotation Xrotation Yrotation
    JOINT lThigh
    {
      OFFSET 0 -1.70687 -2.19456
      CHANNELS 3 Zrotation Xrotation Yrotation
      JOINT lShin
      {
        OFFSET 0 -36.8199 0.73152
        CHANNELS 3 Zrotation Xrotation Yrotation
        JOINT lFoot
        {
          OFFSET -0.73152 -45.1104 -5.12064
          CHANNELS 3 Zrotation Xrotation Yrotation
          End Site
          {
            OFFSET 1.1221 -3.69964 12.103
          }
        }
      }
    }
  }
}
MOTION
Frames:	6
Frame Time:	0.00833333
-178.661 84.8928 22.7082 0.0 0.0 0.0 -0.18015 -0.000587405 -0.00513806 -0.0496828 -0.000860776 -0.0086068 9.57345e-16 -3.18055e-15 -3.41661e-17 2.89791e-15 -6.36111e-15 -9.47333e-17 -0.0 0.0 0.0 -0.0 0.0 0.0 4.45954e-16 0.0 2.48481e-16 1.27048e-14 -4.41053e-16 1.98785e-16 1.7011e-13 -5.28767e-14 2.22639e-14 1.95046e-12 4.1223e-14 -1.04958e-13 4.59918e-12 -1.81326e-14 -1.49486e-13 7.93707e-12 -3.18055e-14 -2.59215e-13 4.60425e-12 -1.66979e-14 -1.49486e-13 7.73091 5.47488 0.417314 4.59893e-12 -1.799e-14 -1.46306e-13 2.90554 0.965183 0.102902 4.61023e-12 -1.77912e-14 -1.4551e-13 10.2786 0.731801 0.0259123 4.5961e-12 -1.82882e-14 -1.36764e-13 2.22167 -0.733487 -0.20892 4.48608e-16 -3.88251e-19 -2.48481e-16 7.18284e-15 -2.54693e-16 -7.95139e-16 1.69563e-13 5.18828e-14 -2.8625e-14 1.94839e-12 -4.61429e-14 -2.22639e-14 4.59741e-12 1.76266e-14 -1.49486e-13 7.94423e-12 3.18055e-14 -2.46493e-13 4.58875e-12 2.06736e-14 -1.36764e-13 -7.73091 5.47488 -0.417314 4.5967e-12 1.83876e-14 -1.39944e-13 -2.90554 0.965183 -0.102902 4.59229e-12 1.78906e-14 -1.44715e-13 -10.2786 0.731801 -0.0259123 4.60087e-12 1.90833e-14 -1.52667e-13 -2.22167 -0.733487 0.20892 -2.03217e-16 0.0 -3.88251e-19 0.3736 -2.84391 -0.0347146 -0.00665006 -0.40154 -0.0584315 -0.509752 3.24465 0.12454 2.03217e-16 0.0 3.88251e-19 -0.647739 -3.54407 0.0518664 0.00461033 0.866752 0.0396075 0.511805 2.67656 -0.113174
-176.951 82.5018 17.457 -17.4218 84.4546 -5.0664 -0.453825 -5.45169 0.579673 1.69326 -0.216244 0.261844 -0.073983 4.52013 0.19305 -1.32961 -3.79132 0.393549 -0.0 0.0 0.0 -0.0 0.0 0.0 4.18536e-14 1.19326e-12 -5.62048e-14 22.8884 -2.14097 -0.690928 -1.9853 -0.681992 3.2972 0.261336 11.3825 1.48807 -8.04477e-10 -3.97715e-10 8.8435e-10 -1.35819e-09 -6.91161e-10 1.55107e-09 -8.04471e-10 -3.97715e-10 8.84348e-10 7.73091 5.47488 0.417314 -8.04476e-10 -3.97717e-10 8.84351e-10 2.90554 0.965183 0.102902 -8.04466e-10 -3.97717e-10 8.8435e-10 10.2786 0.731801 0.0259123 -8.04481e-10 -3.97716e-10 8.84357e-10 2.22167 -0.733487 -0.20892 4.18165e-14 1.19326e-12 -5.65884e-14 -24.6959 -5.76402 1.79849 1.78499 -0.597874 -2.97709 -0.586637 17.1374 -2.03719 1.07507e-09 -2.55177e-10 6.66103e-11 1.84894e-09 -4.52103e-10 6.24046e-11 1.07506e-09 -2.55175e-10 6.66232e-11 -7.73091 5.47488 -0.417314 1.07507e-09 -2.55177e-10 6.66133e-11 -2.90554 0.965183 -0.102902 1.07506e-09 -2.55177e-10 6.66111e-11 -10.2786 0.731801 -0.0259123 1.07507e-09 -2.55175e-10 6.66023e-11 -2.22167 -0.733487 0.20892 -2.03217e-16 0.0 -3.88251e-19 2.75472 -10.2845 -0.823014 -0.000697174 8.50829 0.0684173 -1.01808 1.15988 -5.82439 2.03217e-16 0.0 3.88251e-19 1.9463 -10.7093 0.147183 -0.0292946 12.3984 -0.156636 1.07606 -1.86503 3.60007
-176.88 82.4979 17.4355 -16.7949 84.5133 -4.3109 -0.623132 -11.211 1.21043 3.54093 -0.447962 0.546691 -0.183076 9.2968 0.401271 -2.68908 -7.79289 0.814849 -0.0 0.0 0.0 -0.0 0.0 0.0 8.78035e-14 2.49692e-12 -1.18165e-13 47.0256 -4.40397 -1.42772 -3.99921 -1.3955 6.78492 -0.157441 23.3942 3.27062 -1.74013e-09 -8.48855e-10 1.87914e-09 -2.93895e-09 -1.47531e-09 3.29667e-09 -1.74012e-09 -8.48856e-10 1.87913e-09 7.73091 5.47488 0.417314 -1.74012e-09 -8.48859e-10 1.87914e-09 2.90554 0.965183 0.102902 -1.74012e-09 -8.48859e-10 1.87913e-09 10.2786 0.731801 0.0259123 -1.74013e-09 -8.48857e-10 1.87914e-09 2.22167 -0.733487 -0.20892 8.77229e-14 2.49693e-12 -1.18426e-13 -50.405 -11.8472 3.76271 3.6054 -1.22497 -6.12681 0.386282 35.1838 -4.90241 2.29776e-09 -5.50568e-10 1.27605e-10 3.95094e-09 -9.75116e-10 1.07691e-10 2.29775e-09 -5.50567e-10 1.27618e-10 -7.73091 5.47488 -0.417314 2.29776e-09 -5.5057e-10 1.27601e-10 -2.90554 0.965183 -0.102902 2.29776e-09 -5.50568e-10 1.27602e-10 -10.2786 0.731801 -0.0259123 2.29776e-09 -5.50566e-10 1.27592e-10 -2.22167 -0.733487 0.20892 -2.03217e-16 0.0 -3.88251e-19 5.03564 -18.1494 -1.71711 -0.0390321 17.9299 0.211275 -2.02308 -1.00925 -12.1135 2.03217e-16 0.0 3.88251e-19 4.71389 -18.289 0.255504 0.0282481 24.5903 -0.392115 2.31284 -6.6161 7.56617
-176.861 82.5011 17.438 -16.9637 84.5555 -4.5477 -0.655455 -16.347 1.81482 5.18525 -0.646955 0.802791 -0.315558 13.5598 0.593905 -3.82994 -11.3718 1.20166 -0.0 0.0 0.0 -0.0 0.0 0.0 1.24669e-13 3.57979e-12 -1.69111e-13 68.5094 -6.41917 -2.08441 -5.72159 -2.0189 9.89712 -1.2988 34.0453 5.28406 -2.42263e-09 -1.19311e-09 2.65335e-09 -4.09044e-09 -2.07342e-09 4.65371e-09 -2.42262e-09 -1.19311e-09 2.65334e-09 7.73091 5.47488 0.417314 -2.42262e-09 -1.19312e-09 2.65335e-09 2.90554 0.965183 0.102902 -2.42262e-09 -1.19312e-09 2.65334e-09 10.2786 0.731801 0.0259123 -2.42263e-09 -1.19311e-09 2.65335e-09 2.22167 -0.733487 -0.20892 1.24552e-13 3.57979e-12 -1.69268e-13 -72.9608 -17.2223 5.62096 5.16934 -1.77427 -8.9351 3.7135 51.0712 -9.31925 3.21601e-09 -7.65566e-10 2.0013e-10 5.53094e-09 -1.35637e-09 1.87707e-10 3.216e-09 -7.65566e-10 2.00143e-10 -7.73091 5.47488 -0.417314 3.21601e-09 -7.65569e-10 2.0012e-10 -2.90554 0.965183 -0.102902 3.21601e-09 -7.65566e-10 2.00123e-10 -10.2786 0.731801 -0.0259123 3.21602e-09 -7.65564e-10 2.00112e-10 -2.22167 -0.733487 0.20892 -2.03217e-16 0.0 -3.88251e-19 6.84584 -25.1458 -2.60727 -0.117517 26.3275 0.35687 -3.31496 -2.84961 -17.7409 2.03217e-16 0.0 3.88251e-19 7.21305 -25.0393 0.364588 0.184115 35.4602 -0.660706 3.98314 -10.7548 11.2202
-176.869 82.496 17.4614 -17.9241 84.5639 -5.3646 -0.58819 -19.9311 2.29248 6.31676 -0.764193 0.986976 -0.439629 16.539 0.733551 -4.53665 -13.896 1.48246 -0.0 0.0 0.0 -0.0 0.0 0.0 1.38823e-13 4.11067e-12 -1.92523e-13 83.4709 -7.81851 -2.52963 -6.88007 -2.44286 12.0653 -2.69075 41.3899 7.1149 -2.47226e-09 -1.27015e-09 2.87613e-09 -4.16878e-09 -2.20643e-09 5.03934e-09 -2.47225e-09 -1.27016e-09 2.87612e-09 7.73091 5.47488 0.417314 -2.47225e-09 -1.27016e-09 2.87613e-09 2.90554 0.965183 0.102902 -2.47225e-09 -1.27016e-09 2.87612e-09 10.2786 0.731801 0.0259123 -2.47227e-09 -1.27016e-09 2.87612e-09 2.22167 -0.733487 -0.20892 1.38689e-13 4.11067e-12 -1.92622e-13 -88.448 -20.894 6.99784 6.22316 -2.14758 -10.8861 9.14158 61.8229 -15.2101 3.37318e-09 -7.79583e-10 3.01478e-10 5.80594e-09 -1.38325e-09 3.54547e-10 3.37317e-09 -7.79583e-10 3.01491e-10 -7.73091 5.47488 -0.417314 3.37317e-09 -7.79586e-10 3.01466e-10 -2.90554 0.965183 -0.102902 3.37317e-09 -7.79583e-10 3.0147e-10 -10.2786 0.731801 -0.0259123 3.37318e-09 -7.79581e-10 3.01459e-10 -2.22167 -0.733487 0.20892 -2.03217e-16 0.0 -3.88251e-19 7.97578 -29.9896 -3.29641 -0.202171 32.1658 0.475379 -4.42596 -4.04738 -21.6773 2.03217e-16 0.0 3.88251e-19 8.98347 -29.716 0.451839 0.376433 43.0268 -0.909461 5.48149 -13.554 13.8893
-176.811 82.5016 17.479 -18.1035 84.5538 -5.6514 -0.48687 -21.3632 2.56857 6.7295 -0.755376 1.07535 -0.518736 17.7141 0.786629 -4.70087 -14.9389 1.59495 -0.0 0.0 0.0 -0.0 0.0 0.0 1.21461e-13 3.70055e-12 -1.72459e-13 89.3504 -8.33654 -2.65884 -7.3243 -2.60723 12.9142 -3.39743 44.1559 7.95161 -1.51002e-09 -9.22527e-10 2.22575e-09 -2.53089e-09 -1.60015e-09 3.88648e-09 -1.51001e-09 -9.22529e-10 2.22574e-09 7.73091 5.47488 0.417314 -1.51001e-09 -9.22531e-10 2.22574e-09 2.90554 0.965183 0.102902 -1.51001e-09 -9.22531e-10 2.22574e-09 10.2786 0.731801 0.0259123 -1.51003e-09 -9.2253e-10 2.22574e-09 2.22167 -0.733487 -0.20892 1.21337e-13 3.70055e-12 -1.72573e-13 -94.4408 -22.2212 7.53266 6.6185 -2.28643 -11.6316 12.674 65.8082 -18.8547 2.31969e-09 -4.70882e-10 4.61003e-10 4.00582e-09 -8.41289e-10 6.80842e-10 2.31969e-09 -4.70883e-10 4.61014e-10 -7.73091 5.47488 -0.417314 2.31969e-09 -4.70886e-10 4.60993e-10 -2.90554 0.965183 -0.102902 2.31969e-09 -4.70883e-10 4.60996e-10 -10.2786 0.731801 -0.0259123 2.3197e-09 -4.70881e-10 4.60987e-10 -2.22167 -0.733487 0.20892 -2.03217e-16 0.0 -3.88251e-19 8.42802 -31.8442 -3.54827 -0.242862 34.4189 0.526232 -4.89853 -4.48819 -23.1996 2.03217e-16 0.0 3.88251e-19 9.71462 -31.4981 0.507882 0.477319 45.9735 -1.02833 6.17007 -14.613 15.0377
